<svg width="610" height="128" viewBox="0 0 610 128" fill="none" xmlns="http://www.w3.org/2000/svg">
<path fill-rule="evenodd" clip-rule="evenodd" d="M122.344 46.9391C121.573 45.4992 122.114 44.276 124.125 42.9118C125.078 42.2655 126.217 41.7879 126.657 41.8498C127.719 41.9998 127.97 44.0737 127.162 46.0254C126.032 48.7525 123.565 49.2206 122.344 46.9391Z" fill="white"/>
<path fill-rule="evenodd" clip-rule="evenodd" d="M114.068 58.0918C112.765 58.7482 110.784 60.1486 109.665 61.2037C108.025 62.7519 107.632 63.5023 107.632 65.09C107.632 68.3241 108.921 68.1752 112.174 64.5659C114.614 61.8569 115.063 61.5575 115.402 62.4125C115.883 63.6224 112.771 69.7021 107.717 77.4305C103.861 83.3261 100.717 90.342 100.703 93.082C100.691 95.4787 103.145 97.9775 105.512 97.9775C107.553 97.9775 114.57 94.4124 114.57 93.375C114.57 92.4116 114.392 92.4373 111.761 93.7795C107.31 96.0503 103.364 94.9029 104.173 91.5732C104.79 89.0313 106.933 84.8797 110.077 80.1347C115.828 71.4542 119.907 63.0022 119.907 59.7654C119.907 58.6025 118.152 56.8749 116.986 56.891C116.684 56.8952 115.372 57.4353 114.068 58.0918Z" fill="white"/>
<path d="M102.374 38.3997C103.065 37.7737 104.328 36.5506 105.796 35.6412C108.603 34.0996 109.608 33.6979 111.69 34.4894C113.993 35.3651 114.535 36.527 114.545 40.606C114.555 44.9086 114.149 45.8404 112.375 45.5885C111.302 45.4364 111.131 45.1562 111.296 43.8076C111.818 39.5188 111.708 39.0134 110.222 38.8416C107.793 38.5598 105.197 40.0749 102.903 43.1138C100.093 46.8368 91.1093 64.2211 91.6009 65.0168C91.8672 65.447 93.0757 64.6849 94.57 64.3385C99.6069 63.1708 102.533 64.0834 100.959 66.3308C100.196 67.42 98.4339 67.9409 93.7631 68.4575C90.8059 68.7847 89.8437 69.2826 88.5415 71.1585C87.4122 72.7857 81.8837 84.9458 79.6246 90.7726C77.4312 96.4292 68.8975 112.374 64.874 118.333C62.9565 121.173 57.4724 127.748 52.9706 127.942C51.2942 127.972 50.2358 127.331 49.7939 126.18C49.3894 125.125 49.3095 121.81 50.5674 119.289C52.4551 115.504 57.7221 111.897 59.2009 113.375C59.6321 113.807 58.8908 114.903 56.4535 117.441C53.1948 120.835 52.3574 123.885 54.1357 124.21C55.2137 124.406 60.121 119.426 61.4552 117.361C62.0492 116.442 63.1982 114.527 64.0089 113.104C64.819 111.683 66.6699 108.598 68.121 106.25C69.5726 103.901 70.7841 101.418 70.7841 101.418L72.4044 98.3371C72.4044 98.3371 74.9067 93.5566 75.9576 90.7008L85.6375 70.2984C84.4763 70.1875 83.7569 70.5613 82.3904 70.619C81.0239 70.6767 80.2298 69.8462 79.8429 69.3803C78.6811 67.9804 79.9288 66.8282 83.2537 66.2294C84.9023 65.9321 86.4836 65.4491 86.768 65.1556C87.0519 64.8621 89.1926 60.766 91.5248 56.0536C95.7884 47.4382 100.044 40.5136 102.374 38.3997Z" fill="white"/>
<path fill-rule="evenodd" clip-rule="evenodd" d="M51.8718 59.2851C53.824 55.7627 56.0457 52.2206 56.81 51.4132C59.052 49.0441 61.2012 49.6285 61.2012 52.6081C61.2012 53.1434 59.986 54.5993 58.5012 55.8428C56.7902 57.2752 55.1123 59.395 53.9211 61.6295C52.8874 63.569 51.1129 66.8367 49.9788 68.8914C47.0253 74.239 44.897 80.9549 45.6874 82.4311C46.7211 84.363 46.9922 84.1939 50.4041 79.4873C51.4992 77.9769 53.7434 74.9749 55.3909 72.8162C57.0384 70.6574 58.9687 67.831 59.6801 66.5357C61.1489 63.8614 62.2653 62.9675 63.5302 63.4526C64.7454 63.9191 64.6515 66.8768 63.3535 69.0056C62.0102 71.2082 60.8335 75.8518 60.3601 80.813C59.9876 84.7217 59.9892 84.7286 61.2609 84.5488C62.1266 84.426 62.8753 83.6837 63.5958 82.2336C64.1791 81.0595 65.8997 78.0575 67.4197 75.5625C68.9396 73.0675 71.4368 68.5045 72.969 65.4225C74.5012 62.3404 76.0142 59.6522 76.3317 59.4489C76.978 59.0353 78.2792 59.9169 78.2792 60.7692C78.2792 61.6594 74.023 70.7428 71.9726 74.2283C64.1151 87.5865 61.5753 90.0612 58.2344 87.6116C57.333 86.9504 57.1996 86.1883 57.206 81.741C57.2102 78.6302 57.0016 76.6352 56.6723 76.6438C56.3745 76.6513 55.3306 77.8382 54.3518 79.2813C51.7666 83.0929 47.6604 86.77 45.9895 86.77C45.2161 86.77 44.002 86.1637 43.2303 85.3915C41.9889 84.1506 41.8849 83.7392 42.1848 81.2554C42.6336 77.5414 44.7059 71.6148 46.6945 68.3561C47.59 66.8896 49.9195 62.8074 51.8718 59.2851Z" fill="white"/>
<path d="M37.6196 80.6987C31.2372 87.7418 27.9545 89.7368 23.503 89.2772C20.6409 88.7707 19.8403 87.9702 18.7895 85.558C18.3401 84.4821 17.9724 82.6889 17.9724 81.5719C17.9724 78.6088 19.7555 72.6619 21.3347 70.3569C22.0882 69.2575 23.621 66.7364 24.7412 64.7548C27.3701 60.1059 35.9566 50.0122 39.487 47.4222C41.9163 45.6402 42.5813 45.4113 45.2759 45.4273C48.8303 45.4487 50.6784 46.6591 50.4191 48.7965C50.1688 50.8597 48.6883 51.4713 47.2159 50.1195C46.2814 49.2618 45.5486 49.0633 44.1231 49.2827C40.3009 49.8708 36.0458 53.7635 29.9815 62.2203C23.7272 70.9424 21.5076 75.926 21.467 81.3418C21.4371 85.2714 22.2355 86.2363 25.5156 86.2363C27.2074 86.2363 28.0196 85.772 30.75 83.2444C38.2995 76.2542 43.139 68.0306 43.5051 61.5692C43.7367 57.4769 44.7598 55.91 46.0487 57.6728C48.6547 61.2362 44.1802 73.4593 37.6196 80.6987Z" fill="white"/>
<path d="M36.0699 18.4401C37.1586 17.787 39.445 18.0107 39.7025 18.7945C39.8114 19.127 38.9667 20.0877 37.8257 20.9293C35.8441 22.3921 32.952 25.6494 28.3554 31.5952C27.1946 33.097 23.9327 37.1797 21.1068 40.6679C13.1687 50.4675 6.99578 60.7999 4.59739 68.3009C2.96702 73.4002 3.35808 78.6062 5.58034 81.3856C8.33784 84.8339 16.9259 89.2032 18.9788 88.4679L19.2081 88.4762C20.294 88.5348 20.4456 88.8762 19.9143 89.923C19.1242 90.727 18.0694 90.6297 13.6373 89.5217C8.53269 88.2457 6.76032 87.2909 4.41967 84.5565C1.33766 80.9552 0.360748 78.4306 0.360722 74.062C0.360722 65.4162 6.74907 53.1331 19.0799 38.0719C24.3739 31.6054 29.1796 25.3076 29.1799 24.835C29.1799 23.9907 27.6893 23.3247 25.4383 23.1646C23.6745 23.0387 23.0054 22.7508 22.8746 22.0618C22.6378 20.812 24.1576 20.2945 30.2311 19.556C32.9758 19.2224 35.6034 18.7198 36.0699 18.4401Z" fill="white"/>
<path d="M136.83 71.2836H156.03V73.5876H136.83V71.2836ZM190.501 78.7716C190.501 79.4329 190.608 79.9236 190.821 80.2436C191.034 80.5423 191.386 80.7663 191.877 80.9156L191.205 82.8356C189.562 82.6223 188.538 81.8223 188.133 80.4356C187.536 81.2036 186.778 81.7903 185.861 82.1956C184.965 82.6009 183.962 82.8036 182.853 82.8036C181.168 82.8036 179.834 82.3343 178.853 81.3956C177.893 80.4569 177.413 79.1983 177.413 77.6196C177.413 75.8916 178.085 74.5583 179.429 73.6196C180.794 72.6809 182.746 72.2116 185.285 72.2116H187.781V70.8356C187.781 69.6409 187.44 68.7876 186.757 68.2756C186.074 67.7422 185.082 67.4756 183.781 67.4756C182.501 67.4756 181.04 67.7636 179.397 68.3396L178.661 66.2916C180.645 65.5876 182.49 65.2356 184.197 65.2356C186.245 65.2356 187.802 65.7156 188.869 66.6756C189.957 67.6356 190.501 68.9689 190.501 70.6756V78.7716ZM183.525 80.7876C184.357 80.7876 185.146 80.5743 185.893 80.1476C186.661 79.7209 187.29 79.1343 187.781 78.3876V74.0676H185.349C183.557 74.0676 182.266 74.3662 181.477 74.9636C180.688 75.5609 180.293 76.4356 180.293 77.5876C180.293 79.7209 181.37 80.7876 183.525 80.7876ZM222.54 80.5956C223.82 80.5956 224.833 80.3503 225.58 79.8596C226.327 79.3689 226.7 78.7183 226.7 77.9076C226.7 77.3529 226.604 76.9049 226.412 76.5636C226.22 76.2009 225.836 75.8809 225.26 75.6036C224.684 75.3049 223.809 75.0063 222.636 74.7076C220.673 74.2169 219.223 73.6302 218.284 72.9476C217.345 72.2436 216.876 71.2089 216.876 69.8436C216.876 68.4356 217.463 67.3156 218.636 66.4836C219.809 65.6516 221.356 65.2356 223.276 65.2356C225.623 65.2356 227.671 65.8542 229.42 67.0916L228.204 68.9476C227.5 68.4569 226.764 68.0836 225.996 67.8276C225.228 67.5502 224.343 67.4116 223.34 67.4116C220.908 67.4116 219.692 68.1476 219.692 69.6196C219.692 70.1316 219.82 70.5476 220.076 70.8676C220.353 71.1876 220.791 71.4756 221.388 71.7316C222.007 71.9663 222.924 72.2543 224.14 72.5956C225.975 73.0862 227.34 73.7156 228.236 74.4836C229.153 75.2303 229.612 76.3289 229.612 77.7796C229.612 79.4649 228.929 80.7236 227.564 81.5556C226.199 82.3876 224.524 82.8036 222.54 82.8036C219.895 82.8036 217.697 82.0463 215.948 80.5316L217.452 78.7716C218.135 79.3263 218.913 79.7743 219.788 80.1156C220.663 80.4356 221.58 80.5956 222.54 80.5956ZM242.367 57.7156C242.965 57.7156 243.445 57.8969 243.807 58.2596C244.17 58.6009 244.351 59.0489 244.351 59.6036C244.351 60.1582 244.17 60.6169 243.807 60.9796C243.445 61.3209 242.965 61.4916 242.367 61.4916C241.791 61.4916 241.322 61.3209 240.959 60.9796C240.618 60.6169 240.447 60.1582 240.447 59.6036C240.447 59.0489 240.618 58.6009 240.959 58.2596C241.322 57.8969 241.791 57.7156 242.367 57.7156ZM244.511 80.3076H249.247V82.4516H236.639V80.3076H241.823V67.7316H236.799V65.5876H244.511V80.3076ZM266.259 65.2356C267.219 65.2356 267.998 65.5769 268.595 66.2596C269.214 66.9209 269.523 68.1369 269.523 69.9076V82.4516H267.059V70.3556C267.059 69.1822 266.984 68.3929 266.835 67.9876C266.686 67.5609 266.323 67.3476 265.747 67.3476C264.659 67.3476 263.678 68.0196 262.803 69.3636V82.4516H260.307V70.3556C260.307 69.1822 260.232 68.3929 260.083 67.9876C259.934 67.5609 259.571 67.3476 258.995 67.3476C257.907 67.3476 256.926 68.0196 256.051 69.3636V82.4516H253.587V65.5876H255.667L255.859 67.5716C256.371 66.8249 256.904 66.2489 257.459 65.8436C258.035 65.4382 258.718 65.2356 259.507 65.2356C261.086 65.2356 262.099 65.9822 262.547 67.4756C263.059 66.7502 263.603 66.1956 264.179 65.8116C264.755 65.4276 265.448 65.2356 266.259 65.2356ZM281.894 65.2356C285.969 65.2356 288.006 68.1582 288.006 74.0036C288.006 76.6703 287.452 78.8036 286.342 80.4036C285.233 82.0036 283.622 82.8036 281.51 82.8036C279.676 82.8036 278.182 82.1636 277.03 80.8836V88.9156L274.342 89.2356V65.5876H276.646L276.87 67.9556C277.489 67.0809 278.225 66.4089 279.078 65.9396C279.953 65.4702 280.892 65.2356 281.894 65.2356ZM281.254 67.4116C280.401 67.4116 279.612 67.6676 278.886 68.1796C278.182 68.6916 277.564 69.3316 277.03 70.0996V78.4516C277.478 79.1129 278.033 79.6356 278.694 80.0196C279.377 80.3823 280.113 80.5636 280.902 80.5636C282.31 80.5636 283.356 80.0303 284.038 78.9636C284.742 77.8756 285.094 76.2223 285.094 74.0036C285.094 71.7849 284.785 70.1316 284.166 69.0436C283.548 67.9556 282.577 67.4116 281.254 67.4116ZM300.122 78.2916C300.122 79.8063 301.05 80.5636 302.906 80.5636C303.781 80.5636 304.719 80.3716 305.722 79.9876L306.426 81.9396C305.359 82.5156 304.026 82.8036 302.426 82.8036C300.911 82.8036 299.695 82.3876 298.778 81.5556C297.882 80.7236 297.434 79.5929 297.434 78.1636V60.9476H292.25V58.8036H300.122V78.2916ZM314.861 74.9636C314.925 76.8196 315.405 78.2169 316.301 79.1556C317.219 80.0943 318.371 80.5636 319.757 80.5636C320.589 80.5636 321.347 80.4463 322.029 80.2116C322.733 79.9556 323.48 79.5716 324.269 79.0596L325.517 80.8516C324.728 81.4703 323.821 81.9503 322.797 82.2916C321.795 82.6329 320.781 82.8036 319.757 82.8036C317.325 82.8036 315.427 82.0143 314.061 80.4356C312.717 78.8356 312.045 76.7023 312.045 74.0356C312.045 72.3503 312.344 70.8463 312.941 69.5236C313.539 68.1796 314.392 67.1343 315.501 66.3876C316.611 65.6196 317.901 65.2356 319.373 65.2356C321.507 65.2356 323.181 65.9822 324.397 67.4756C325.635 68.9476 326.253 70.9636 326.253 73.5236C326.253 74.0143 326.232 74.4943 326.189 74.9636H314.861ZM319.405 67.4436C318.104 67.4436 317.048 67.9129 316.237 68.8516C315.427 69.7689 314.968 71.1236 314.861 72.9156H323.629C323.608 71.1449 323.224 69.7903 322.477 68.8516C321.731 67.9129 320.707 67.4436 319.405 67.4436ZM343.297 65.2356C343.98 65.2356 344.769 65.3529 345.665 65.5876L345.281 71.3156H343.105V67.6996H342.945C340.342 67.6996 338.497 69.5556 337.409 73.2676V80.3716H340.833V82.4516H332.065V80.3716H334.721V67.6676H332.065V65.5876H336.737L337.249 69.5876C337.932 68.1369 338.742 67.0489 339.681 66.3236C340.641 65.5982 341.846 65.2356 343.297 65.2356ZM381.384 65.2356C382.344 65.2356 383.123 65.5769 383.72 66.2596C384.339 66.9209 384.648 68.1369 384.648 69.9076V82.4516H382.184V70.3556C382.184 69.1822 382.109 68.3929 381.96 67.9876C381.811 67.5609 381.448 67.3476 380.872 67.3476C379.784 67.3476 378.803 68.0196 377.928 69.3636V82.4516H375.432V70.3556C375.432 69.1822 375.357 68.3929 375.208 67.9876C375.059 67.5609 374.696 67.3476 374.12 67.3476C373.032 67.3476 372.051 68.0196 371.176 69.3636V82.4516H368.712V65.5876H370.792L370.984 67.5716C371.496 66.8249 372.029 66.2489 372.584 65.8436C373.16 65.4382 373.843 65.2356 374.632 65.2356C376.211 65.2356 377.224 65.9822 377.672 67.4756C378.184 66.7502 378.728 66.1956 379.304 65.8116C379.88 65.4276 380.573 65.2356 381.384 65.2356ZM392.155 77.5556C392.155 78.6436 392.379 79.4436 392.827 79.9556C393.297 80.4463 394.022 80.6916 395.003 80.6916C395.899 80.6916 396.763 80.4356 397.595 79.9236C398.427 79.4116 399.089 78.7716 399.579 78.0036V65.5876H402.267V82.4516H399.963L399.739 80.1796C399.078 81.0116 398.257 81.6623 397.275 82.1316C396.315 82.5796 395.334 82.8036 394.331 82.8036C392.731 82.8036 391.515 82.3769 390.683 81.5236C389.873 80.6703 389.467 79.4436 389.467 77.8436V65.5876H392.155V77.5556ZM414.415 80.5956C415.695 80.5956 416.708 80.3503 417.455 79.8596C418.202 79.3689 418.575 78.7183 418.575 77.9076C418.575 77.3529 418.479 76.9049 418.287 76.5636C418.095 76.2009 417.711 75.8809 417.135 75.6036C416.559 75.3049 415.684 75.0063 414.511 74.7076C412.548 74.2169 411.098 73.6302 410.159 72.9476C409.22 72.2436 408.751 71.2089 408.751 69.8436C408.751 68.4356 409.338 67.3156 410.511 66.4836C411.684 65.6516 413.231 65.2356 415.151 65.2356C417.498 65.2356 419.546 65.8542 421.295 67.0916L420.079 68.9476C419.375 68.4569 418.639 68.0836 417.871 67.8276C417.103 67.5502 416.218 67.4116 415.215 67.4116C412.783 67.4116 411.567 68.1476 411.567 69.6196C411.567 70.1316 411.695 70.5476 411.951 70.8676C412.228 71.1876 412.666 71.4756 413.263 71.7316C413.882 71.9663 414.799 72.2543 416.015 72.5956C417.85 73.0862 419.215 73.7156 420.111 74.4836C421.028 75.2303 421.487 76.3289 421.487 77.7796C421.487 79.4649 420.804 80.7236 419.439 81.5556C418.074 82.3876 416.399 82.8036 414.415 82.8036C411.77 82.8036 409.572 82.0463 407.823 80.5316L409.327 78.7716C410.01 79.3263 410.788 79.7743 411.663 80.1156C412.538 80.4356 413.455 80.5956 414.415 80.5956ZM434.242 57.7156C434.84 57.7156 435.32 57.8969 435.682 58.2596C436.045 58.6009 436.226 59.0489 436.226 59.6036C436.226 60.1582 436.045 60.6169 435.682 60.9796C435.32 61.3209 434.84 61.4916 434.242 61.4916C433.666 61.4916 433.197 61.3209 432.834 60.9796C432.493 60.6169 432.322 60.1582 432.322 59.6036C432.322 59.0489 432.493 58.6009 432.834 58.2596C433.197 57.8969 433.666 57.7156 434.242 57.7156ZM436.386 80.3076H441.122V82.4516H428.514V80.3076H433.698V67.7316H428.674V65.5876H436.386V80.3076ZM454.678 80.4996C456.15 80.4996 457.611 80.0089 459.062 79.0276L460.342 80.7876C459.638 81.4063 458.763 81.8969 457.718 82.2596C456.673 82.6223 455.659 82.8036 454.678 82.8036C452.182 82.8036 450.23 82.0249 448.822 80.4676C447.435 78.8889 446.742 76.7663 446.742 74.0996C446.742 72.4143 447.051 70.8996 447.67 69.5556C448.31 68.2116 449.227 67.1556 450.422 66.3876C451.617 65.6196 453.035 65.2356 454.678 65.2356C456.854 65.2356 458.731 65.8969 460.31 67.2196L458.998 68.9796C457.526 67.9983 456.075 67.5076 454.646 67.5076C453.131 67.5076 451.915 68.0729 450.998 69.2036C450.102 70.3129 449.654 71.9449 449.654 74.0996C449.654 76.2543 450.102 77.8649 450.998 78.9316C451.915 79.9769 453.142 80.4996 454.678 80.4996ZM492.957 65.2356C497.032 65.2356 499.069 68.1582 499.069 74.0036C499.069 76.6703 498.514 78.8036 497.405 80.4036C496.296 82.0036 494.685 82.8036 492.573 82.8036C490.738 82.8036 489.245 82.1636 488.093 80.8836V88.9156L485.405 89.2356V65.5876H487.709L487.933 67.9556C488.552 67.0809 489.288 66.4089 490.141 65.9396C491.016 65.4702 491.954 65.2356 492.957 65.2356ZM492.317 67.4116C491.464 67.4116 490.674 67.6676 489.949 68.1796C489.245 68.6916 488.626 69.3316 488.093 70.0996V78.4516C488.541 79.1129 489.096 79.6356 489.757 80.0196C490.44 80.3823 491.176 80.5636 491.965 80.5636C493.373 80.5636 494.418 80.0303 495.101 78.9636C495.805 77.8756 496.157 76.2223 496.157 74.0036C496.157 71.7849 495.848 70.1316 495.229 69.0436C494.61 67.9556 493.64 67.4116 492.317 67.4116ZM511.184 78.2916C511.184 79.8063 512.112 80.5636 513.968 80.5636C514.843 80.5636 515.782 80.3716 516.784 79.9876L517.488 81.9396C516.422 82.5156 515.088 82.8036 513.488 82.8036C511.974 82.8036 510.758 82.3876 509.84 81.5556C508.944 80.7236 508.496 79.5929 508.496 78.1636V60.9476H503.312V58.8036H511.184V78.2916ZM535.876 78.7716C535.876 79.4329 535.983 79.9236 536.196 80.2436C536.409 80.5423 536.761 80.7663 537.252 80.9156L536.58 82.8356C534.937 82.6223 533.913 81.8223 533.508 80.4356C532.911 81.2036 532.153 81.7903 531.236 82.1956C530.34 82.6009 529.337 82.8036 528.228 82.8036C526.543 82.8036 525.209 82.3343 524.228 81.3956C523.268 80.4569 522.788 79.1983 522.788 77.6196C522.788 75.8916 523.46 74.5583 524.804 73.6196C526.169 72.6809 528.121 72.2116 530.66 72.2116H533.156V70.8356C533.156 69.6409 532.815 68.7876 532.132 68.2756C531.449 67.7422 530.457 67.4756 529.156 67.4756C527.876 67.4756 526.415 67.7636 524.772 68.3396L524.036 66.2916C526.02 65.5876 527.865 65.2356 529.572 65.2356C531.62 65.2356 533.177 65.7156 534.244 66.6756C535.332 67.6356 535.876 68.9689 535.876 70.6756V78.7716ZM528.9 80.7876C529.732 80.7876 530.521 80.5743 531.268 80.1476C532.036 79.7209 532.665 79.1343 533.156 78.3876V74.0676H530.724C528.932 74.0676 527.641 74.3662 526.852 74.9636C526.063 75.5609 525.668 76.4356 525.668 77.5876C525.668 79.7209 526.745 80.7876 528.9 80.7876ZM551.095 82.5476C550.434 84.4889 549.527 86.0356 548.375 87.1876C547.223 88.3396 545.613 89.0223 543.543 89.2356L543.159 87.0916C544.29 86.8996 545.186 86.6009 545.847 86.1956C546.53 85.8116 547.063 85.3209 547.447 84.7236C547.831 84.1476 548.183 83.3903 548.503 82.4516H547.607L541.751 65.5876H544.599L549.431 80.4036L554.199 65.5876H556.983L551.095 82.5476ZM564.299 74.9636C564.363 76.8196 564.843 78.2169 565.739 79.1556C566.656 80.0943 567.808 80.5636 569.195 80.5636C570.027 80.5636 570.784 80.4463 571.467 80.2116C572.171 79.9556 572.918 79.5716 573.707 79.0596L574.955 80.8516C574.166 81.4703 573.259 81.9503 572.235 82.2916C571.232 82.6329 570.219 82.8036 569.195 82.8036C566.763 82.8036 564.864 82.0143 563.499 80.4356C562.155 78.8356 561.483 76.7023 561.483 74.0356C561.483 72.3503 561.782 70.8463 562.379 69.5236C562.976 68.1796 563.83 67.1343 564.939 66.3876C566.048 65.6196 567.339 65.2356 568.811 65.2356C570.944 65.2356 572.619 65.9822 573.835 67.4756C575.072 68.9476 575.691 70.9636 575.691 73.5236C575.691 74.0143 575.67 74.4943 575.627 74.9636H564.299ZM568.843 67.4436C567.542 67.4436 566.486 67.9129 565.675 68.8516C564.864 69.7689 564.406 71.1236 564.299 72.9156H573.067C573.046 71.1449 572.662 69.7903 571.915 68.8516C571.168 67.9129 570.144 67.4436 568.843 67.4436ZM592.734 65.2356C593.417 65.2356 594.206 65.3529 595.102 65.5876L594.718 71.3156H592.542V67.6996H592.382C589.78 67.6996 587.934 69.5556 586.846 73.2676V80.3716H590.27V82.4516H581.502V80.3716H584.158V67.6676H581.502V65.5876H586.174L586.686 69.5876C587.369 68.1369 588.18 67.0489 589.118 66.3236C590.078 65.5982 591.284 65.2356 592.734 65.2356Z" fill="white"/>
</svg>
