<svg width="128" height="128" viewBox="0 0 128 128" fill="none" xmlns="http://www.w3.org/2000/svg">
<path fill-rule="evenodd" clip-rule="evenodd" d="M122.344 46.9391C121.573 45.4992 122.114 44.276 124.125 42.9118C125.078 42.2655 126.217 41.7879 126.657 41.8498C127.719 41.9998 127.97 44.0737 127.162 46.0254C126.032 48.7525 123.565 49.2206 122.344 46.9391Z" fill="white"/>
<path fill-rule="evenodd" clip-rule="evenodd" d="M114.068 58.0918C112.765 58.7482 110.784 60.1486 109.665 61.2037C108.025 62.7519 107.632 63.5023 107.632 65.09C107.632 68.3241 108.921 68.1752 112.174 64.5659C114.614 61.8569 115.063 61.5575 115.402 62.4125C115.883 63.6224 112.771 69.7021 107.717 77.4305C103.861 83.3261 100.717 90.342 100.703 93.082C100.691 95.4787 103.145 97.9775 105.512 97.9775C107.553 97.9775 114.57 94.4124 114.57 93.375C114.57 92.4116 114.392 92.4373 111.761 93.7795C107.31 96.0503 103.364 94.9029 104.173 91.5732C104.79 89.0313 106.933 84.8797 110.077 80.1347C115.828 71.4542 119.907 63.0022 119.907 59.7654C119.907 58.6025 118.152 56.8749 116.986 56.891C116.684 56.8952 115.372 57.4353 114.068 58.0918Z" fill="white"/>
<path d="M102.374 38.3997C103.065 37.7737 104.328 36.5506 105.796 35.6412C108.603 34.0996 109.608 33.6979 111.69 34.4894C113.993 35.3651 114.535 36.527 114.545 40.606C114.555 44.9086 114.149 45.8404 112.375 45.5885C111.302 45.4364 111.131 45.1562 111.296 43.8076C111.818 39.5188 111.708 39.0134 110.222 38.8416C107.793 38.5598 105.197 40.0749 102.903 43.1138C100.093 46.8368 91.1093 64.2211 91.6009 65.0168C91.8672 65.447 93.0757 64.6849 94.57 64.3385C99.6069 63.1708 102.533 64.0834 100.959 66.3308C100.196 67.42 98.4339 67.9409 93.7631 68.4575C90.8059 68.7847 89.8437 69.2826 88.5415 71.1585C87.4122 72.7857 81.8837 84.9458 79.6246 90.7726C77.4312 96.4292 68.8975 112.374 64.874 118.333C62.9565 121.173 57.4724 127.748 52.9706 127.942C51.2942 127.972 50.2358 127.331 49.7939 126.18C49.3894 125.125 49.3095 121.81 50.5674 119.289C52.4551 115.504 57.7221 111.897 59.2009 113.375C59.6321 113.807 58.8908 114.903 56.4535 117.441C53.1948 120.835 52.3574 123.885 54.1357 124.21C55.2137 124.406 60.121 119.426 61.4552 117.361C62.0492 116.442 63.1982 114.527 64.0089 113.104C64.819 111.683 66.6699 108.598 68.121 106.25C69.5726 103.901 70.7841 101.418 70.7841 101.418L72.4044 98.3371C72.4044 98.3371 74.9067 93.5566 75.9576 90.7008L85.6375 70.2984C84.4763 70.1875 83.7569 70.5613 82.3904 70.619C81.0239 70.6767 80.2298 69.8462 79.8429 69.3803C78.6811 67.9804 79.9288 66.8282 83.2537 66.2294C84.9023 65.9321 86.4836 65.4491 86.768 65.1556C87.0519 64.8621 89.1926 60.766 91.5248 56.0536C95.7884 47.4382 100.044 40.5136 102.374 38.3997Z" fill="white"/>
<path fill-rule="evenodd" clip-rule="evenodd" d="M51.8718 59.2851C53.824 55.7627 56.0457 52.2206 56.81 51.4132C59.052 49.0441 61.2012 49.6285 61.2012 52.6081C61.2012 53.1434 59.986 54.5993 58.5012 55.8428C56.7902 57.2752 55.1123 59.395 53.9211 61.6295C52.8874 63.569 51.1129 66.8367 49.9788 68.8914C47.0253 74.239 44.897 80.9549 45.6874 82.4311C46.7211 84.363 46.9922 84.1939 50.4041 79.4873C51.4992 77.9769 53.7434 74.9749 55.3909 72.8162C57.0384 70.6574 58.9687 67.831 59.6801 66.5357C61.1489 63.8614 62.2653 62.9675 63.5302 63.4526C64.7454 63.9191 64.6515 66.8768 63.3535 69.0056C62.0102 71.2082 60.8335 75.8518 60.3601 80.813C59.9876 84.7217 59.9892 84.7286 61.2609 84.5488C62.1266 84.426 62.8753 83.6837 63.5958 82.2336C64.1791 81.0595 65.8997 78.0575 67.4197 75.5625C68.9396 73.0675 71.4368 68.5045 72.969 65.4225C74.5012 62.3404 76.0142 59.6522 76.3317 59.4489C76.978 59.0353 78.2792 59.9169 78.2792 60.7692C78.2792 61.6594 74.023 70.7428 71.9726 74.2283C64.1151 87.5865 61.5753 90.0612 58.2344 87.6116C57.333 86.9504 57.1996 86.1883 57.206 81.741C57.2102 78.6302 57.0016 76.6352 56.6723 76.6438C56.3745 76.6513 55.3306 77.8382 54.3518 79.2813C51.7666 83.0929 47.6604 86.77 45.9895 86.77C45.2161 86.77 44.002 86.1637 43.2303 85.3915C41.9889 84.1506 41.8849 83.7392 42.1848 81.2554C42.6336 77.5414 44.7059 71.6148 46.6945 68.3561C47.59 66.8896 49.9195 62.8074 51.8718 59.2851Z" fill="white"/>
<path d="M37.6196 80.6987C31.2372 87.7418 27.9545 89.7368 23.503 89.2772C20.6409 88.7707 19.8403 87.9702 18.7895 85.558C18.3401 84.4821 17.9724 82.6889 17.9724 81.5719C17.9724 78.6088 19.7555 72.6619 21.3347 70.3569C22.0882 69.2575 23.621 66.7364 24.7412 64.7548C27.3701 60.1059 35.9566 50.0122 39.487 47.4222C41.9163 45.6402 42.5813 45.4113 45.2759 45.4273C48.8303 45.4487 50.6784 46.6591 50.4191 48.7965C50.1688 50.8597 48.6883 51.4713 47.2159 50.1195C46.2814 49.2618 45.5486 49.0633 44.1231 49.2827C40.3009 49.8708 36.0458 53.7635 29.9815 62.2203C23.7272 70.9424 21.5076 75.926 21.467 81.3418C21.4371 85.2714 22.2355 86.2363 25.5156 86.2363C27.2074 86.2363 28.0196 85.772 30.75 83.2444C38.2995 76.2542 43.139 68.0306 43.5051 61.5692C43.7367 57.4769 44.7598 55.91 46.0487 57.6728C48.6547 61.2362 44.1802 73.4593 37.6196 80.6987Z" fill="white"/>
<path d="M36.0699 18.4401C37.1586 17.787 39.445 18.0107 39.7025 18.7945C39.8114 19.127 38.9667 20.0877 37.8257 20.9293C35.8441 22.3921 32.952 25.6494 28.3554 31.5952C27.1946 33.097 23.9327 37.1797 21.1068 40.6679C13.1687 50.4675 6.99578 60.7999 4.59739 68.3009C2.96702 73.4002 3.35808 78.6062 5.58034 81.3856C8.33784 84.8339 16.9259 89.2032 18.9788 88.4679L19.2081 88.4763C20.294 88.5348 20.4456 88.8762 19.9143 89.923C19.1242 90.727 18.0694 90.6297 13.6373 89.5217C8.53269 88.2457 6.76032 87.2909 4.41967 84.5565C1.33766 80.9552 0.360748 78.4306 0.360722 74.062C0.360722 65.4162 6.74907 53.1331 19.0799 38.0719C24.3739 31.6054 29.1796 25.3076 29.1799 24.835C29.1799 23.9907 27.6893 23.3247 25.4383 23.1646C23.6745 23.0387 23.0054 22.7508 22.8746 22.0618C22.6378 20.812 24.1576 20.2945 30.2311 19.556C32.9759 19.2224 35.6034 18.7198 36.0699 18.4401Z" fill="white"/>
</svg>
